<svg xmlns="http://www.w3.org/2000/svg" width="239.4" height="70.208" viewBox="0 0 239.4 70.208">
  <g id="Group_1" data-name="Group 1" transform="translate(-173.7 -445.613)">
    <path id="Path_1" data-name="Path 1" d="M262.411,483.543c2.594-2.041,3.87-3.615,3.87-4.678a.674.674,0,0,0-.17-.51c-.51-.383-2.254.51-5.273,2.679a77.546,77.546,0,0,0-7.57,6.379,1.558,1.558,0,0,0,.68.085C256.245,487.5,259.052,486.18,262.411,483.543Z" fill="none"/>
    <path id="Path_2" data-name="Path 2" d="M264.151,490h0l0,0Z" fill="none"/>
    <path id="Path_3" data-name="Path 3" d="M304.907,494.977h0Z" fill="none"/>
    <path id="Path_4" data-name="Path 4" d="M206.4,506.678q-2.1,0-2.041-2.169.19-2.934,6.634-9.952c2.382-2.509,5.656-5.783,9.909-9.823,5.613-5.274,9.016-8.506,10.206-9.739,1.234-1.233,3.02-3.1,5.444-5.613-2.594-3.955-6.719-5.912-12.376-5.912a22.759,22.759,0,0,0-9.993,2.552,23.9,23.9,0,0,0-8.974,7.315,15.5,15.5,0,0,0-3.019,6.676c-.128.638-.34.936-.595.936-.383,0-.553-.3-.511-.936a14.892,14.892,0,0,1,2.935-7.357A22.965,22.965,0,0,1,213.037,465a24.918,24.918,0,0,1,11.228-2.807c5.911,0,10.334,2.084,13.31,6.167,2.892-3.147,5.7-6.379,8.463-9.781a40.3,40.3,0,0,0,5.061-7.1,61.285,61.285,0,0,0-13.864-1.191,64.839,64.839,0,0,0-19.86,3.445A68.959,68.959,0,0,0,195.9,465.341a65.705,65.705,0,0,0-13.524,14.5,38.358,38.358,0,0,0-6.038,13.311,24.839,24.839,0,0,0-.6,5.486c0,5.188,1.786,9.228,5.359,12.078,3.232,2.594,7.4,3.87,12.418,3.87q11.865,0,23.645-6.975a49.466,49.466,0,0,0,19.052-19.435q-9.186,7.4-16.628,12.461C213.548,504.679,209.125,506.678,206.4,506.678Z" fill="none"/>
    <path id="Path_5" data-name="Path 5" d="M213.718,496.6c-4.551,4.04-6.932,6.634-7.187,7.825a.611.611,0,0,0,.51.808c.6.17,1.829-.213,3.785-1.148a61.362,61.362,0,0,0,7.995-4.976q8.421-6.125,19.222-14.97a17.329,17.329,0,0,0,1.021-5.953,16.827,16.827,0,0,0-.766-5.1C231.409,480.226,223.2,488.093,213.718,496.6Z" fill="none"/>
    <path id="Path_6" data-name="Path 6" d="M331.755,495.942v0l0,0Z" fill="none"/>
    <path id="Path_7" data-name="Path 7" d="M357.374,478.525q-3.955,0-16.118,11.7c-5.146,4.933-7.74,8.378-7.74,10.334a.976.976,0,0,0,.511.935c.765.3,2.764-.68,6-3.019a80.984,80.984,0,0,0,10.036-8.761q8.421-8.612,8.421-10.334C358.48,478.822,358.1,478.525,357.374,478.525Z" fill="none"/>
    <path id="Path_8" data-name="Path 8" d="M304.045,479.46c0-.638-.34-.935-1.021-.935q-4.018,0-16.245,11.7c-5.146,4.933-7.74,8.42-7.74,10.419a.891.891,0,0,0,.511.85c.808.3,2.806-.68,6.038-3.019a84.147,84.147,0,0,0,10.037-8.761C301.2,483.926,304.045,480.524,304.045,479.46Z" fill="none"/>
    <path id="Path_9" data-name="Path 9" d="M360.028,492.938l-.329.283.32-.274Z" fill="none"/>
    <path id="Path_10" data-name="Path 10" d="M359.883,500.639a.892.892,0,0,0,.51.85c.766.3,2.765-.68,6-3.019a78.056,78.056,0,0,0,10.036-8.761c5.613-5.783,8.42-9.185,8.42-10.249,0-.638-.34-.935-1.02-.935q-4.02,0-16.2,11.7C362.477,495.153,359.883,498.64,359.883,500.639Z" fill="none"/>
    <path id="Path_11" data-name="Path 11" d="M412.914,458.112c-1.191-2.764-4.423-4.125-9.781-4.125-6.677,0-14.034,2.764-21.987,8.293a148.049,148.049,0,0,0-22.5,19.434,4.471,4.471,0,0,0,.978-2.509c0-1.19-.808-1.786-2.509-1.786-2.339,0-5.529,1.063-9.484,3.19a41.919,41.919,0,0,0-10.249,7.569,35.53,35.53,0,0,0-3.893,4.673l-.421.381h0c-2.427,1.981-4.443,3.636-6.02,4.94-3.189,2.3-5.571,3.445-7.059,3.445-.553,0-.851-.255-.851-.808,0-.808,1.021-2.254,3.02-4.38,2.466-2.594,4.72-4.763,6.719-6.549,5.231-4.678,7.825-8.038,7.825-10.164q0-2.3-2.679-2.3-2.808,0-9.7,4.21a105.157,105.157,0,0,0-9.908,7.06,69.278,69.278,0,0,1,11.7-10.93,10.373,10.373,0,0,0-5.784,1.361,47.232,47.232,0,0,0-7.74,6.8q-2.127,2.23-3.887,4.281l-.1.09c-3.344,2.933-5.894,5.111-7.713,6.558-4.423,3.487-7.144,4.933-8.165,4.465a.681.681,0,0,1-.383-.68c0-.851,1.191-2.679,3.53-5.486A176.524,176.524,0,0,1,312.933,478.1a8.023,8.023,0,0,0-3.274.34c-1.191.382-3.53,2.041-7.06,4.975,1.744-1.7,2.594-3.147,2.594-4.3,0-1.233-.893-1.871-2.679-1.871-2.424,0-5.571,1.106-9.483,3.275a46.538,46.538,0,0,0-10.122,7.654c-4.338,4.508-6.549,8.421-6.549,11.78,0,1.829.978,2.765,2.849,2.765q3.636,0,12.121-7.145a8.189,8.189,0,0,0-1.7,4.38c0,1.829,1.021,2.765,3.062,2.765,1.829,0,4.848-1.659,8.974-5.061,1.045-.844,2.13-1.745,3.243-2.684h0a41.751,41.751,0,0,0-3.158,4.98,2.85,2.85,0,0,0-.171,2c.128.851.426,1.276.936,1.276a118.693,118.693,0,0,1,10.674-11.95,67.368,67.368,0,0,1,11.653-8.591c4.89-3.019,7.782-4.295,8.76-3.912a.323.323,0,0,1,.255.34c0,.6-1.148,1.914-3.359,3.955-1.744,1.489-3.487,3.02-5.231,4.508a56.338,56.338,0,0,0-7.23,7.655,8.217,8.217,0,0,0-1.658,4.55c0,1.7.68,2.679,2,3.02,2.041.467,4.975-.681,8.93-3.445,1.2-.857,2.7-2,4.447-3.419v0h0l0,0a10.143,10.143,0,0,0-.917,4.014c0,1.829.936,2.765,2.849,2.765,2.424,0,6.422-2.382,12.078-7.145a8.439,8.439,0,0,0-1.659,4.38c0,1.829,1.021,2.765,3.02,2.765,1.786,0,4.763-1.659,8.973-5.061.668-.526,1.321-1.052,1.965-1.578h0a10.061,10.061,0,0,0-.86,3.873c0,1.829.935,2.765,2.849,2.765,2.424,0,6.422-2.382,12.12-7.145a8.2,8.2,0,0,0-1.7,4.38c0,1.829,1.021,2.765,3.02,2.765,1.871,0,4.848-1.659,9.015-5.061,2.382-1.956,5.018-4.168,7.783-6.634.467-.383.6-.723.425-1.063-.213-.426-.553-.383-1.021.085-3.444,3.062-6.124,5.315-7.952,6.8-4.423,3.487-7.145,4.933-8.165,4.465a.711.711,0,0,1-.426-.68c0-.851,1.191-2.679,3.53-5.486A176.641,176.641,0,0,1,393.734,478.1a8.109,8.109,0,0,0-3.274.34c-1.191.382-3.53,2.041-7.06,4.975,1.744-1.7,2.637-3.147,2.637-4.3,0-1.233-.936-1.871-2.722-1.871-2.381,0-5.571,1.106-9.441,3.275a46.531,46.531,0,0,0-10.121,7.654,33.954,33.954,0,0,0-4.243,5.2l-.2.17c-1.661,1.422-2.981,2.521-3.937,3.3q-6.57,5.1-8.165,4.465a.655.655,0,0,1-.425-.68c0-.851,1.19-2.679,3.529-5.486,3.317-3.913,8.974-9.7,17.054-17.394a212.391,212.391,0,0,1,18.414-15.65c6.081-4.507,11.567-6.8,16.458-6.8a11.5,11.5,0,0,1,8.718,3.53,9.035,9.035,0,0,0,1.361,1.02C413.084,459.6,413.3,459.005,412.914,458.112ZM285.588,498.47c-3.232,2.339-5.23,3.317-6.038,3.019a.891.891,0,0,1-.511-.85c0-2,2.594-5.486,7.74-10.419q12.248-11.674,16.245-11.7c.681,0,1.021.3,1.021.935,0,1.064-2.849,4.466-8.42,10.249A84.147,84.147,0,0,1,285.588,498.47Zm98.238-19.945c.68,0,1.02.3,1.02.935,0,1.064-2.807,4.466-8.42,10.249a78.056,78.056,0,0,1-10.036,8.761c-3.232,2.339-5.231,3.317-6,3.019a.892.892,0,0,1-.51-.85c0-2,2.594-5.486,7.74-10.419Q379.806,478.546,383.826,478.525Zm-23.8,14.413-.009.009-.32.274Zm-9.969-3.229a80.984,80.984,0,0,1-10.036,8.761c-3.232,2.339-5.231,3.317-6,3.019a.976.976,0,0,1-.511-.935c0-1.956,2.594-5.4,7.74-10.334q12.184-11.674,16.118-11.7c.723,0,1.106.3,1.106.85Q358.48,481.1,350.059,489.709Z" fill="#b1b3b4"/>
    <path id="Path_12" data-name="Path 12" d="M275.169,458.92c11.568-7.017,20.2-10.419,25.9-10.079a14.178,14.178,0,0,1,10.079,5.061.513.513,0,0,0,.51.17c.171-.085.213-.34.085-.766-1.4-4.72-4.933-7.229-10.674-7.655q-9.377-.637-25.133,9.356-10.078,6.444-29.3,22.157Q242.168,480.8,240,482.65a19.385,19.385,0,0,0,.511-4.465,17.191,17.191,0,0,0-1.106-6.124,115.457,115.457,0,0,0,9.569-10.93,41.109,41.109,0,0,0,5.231-8.93,31.532,31.532,0,0,1,3.955,1.446,9.813,9.813,0,0,1,2.509,2,1.954,1.954,0,0,0,.68.426c.213-.213.128-.6-.17-1.149a6.2,6.2,0,0,0-3.105-2.509c-1.573-.68-2.806-1.19-3.614-1.446a6.186,6.186,0,0,0-.6-2.679,2.207,2.207,0,0,0-.765-.935,2.875,2.875,0,0,0-.511.85,21.579,21.579,0,0,1-.85,2,71.52,71.52,0,0,0-15.607-1.616,68.881,68.881,0,0,0-21.009,3.4,66.224,66.224,0,0,0-21.263,10.887,55.117,55.117,0,0,0-13.864,15.735,47.814,47.814,0,0,0-5.7,14.289,26.231,26.231,0,0,0-.6,5.358c0,5.529,1.914,9.867,5.7,13.056,3.657,3.019,8.377,4.508,14.119,4.508,9.313,0,18.371-2.934,27.132-8.888,8.463-5.7,14.544-12.673,18.159-20.838q5.868-4.912,10.589-8.676A262.575,262.575,0,0,1,275.169,458.92Zm-58.006,48.693q-11.8,6.954-23.645,6.975c-5.019,0-9.186-1.276-12.418-3.87-3.573-2.85-5.359-6.89-5.359-12.078a24.839,24.839,0,0,1,.6-5.486,38.358,38.358,0,0,1,6.038-13.311,65.705,65.705,0,0,1,13.524-14.5,68.959,68.959,0,0,1,21.476-11.609,64.839,64.839,0,0,1,19.86-3.445,61.285,61.285,0,0,1,13.864,1.191,40.3,40.3,0,0,1-5.061,7.1c-2.764,3.4-5.571,6.634-8.463,9.781-2.976-4.083-7.4-6.167-13.31-6.167A24.918,24.918,0,0,0,213.037,465a22.965,22.965,0,0,0-9.015,7.655,14.892,14.892,0,0,0-2.935,7.357c-.042.638.128.936.511.936.255,0,.467-.3.595-.936a15.5,15.5,0,0,1,3.019-6.676,23.9,23.9,0,0,1,8.974-7.315,22.759,22.759,0,0,1,9.993-2.552c5.657,0,9.782,1.957,12.376,5.912-2.424,2.509-4.21,4.38-5.444,5.613-1.19,1.233-4.593,4.465-10.206,9.739-4.253,4.04-7.527,7.314-9.909,9.823q-6.442,7.017-6.634,9.952-.064,2.169,2.041,2.169c2.722,0,7.145-2,13.184-6.039q7.462-5.04,16.628-12.461A49.466,49.466,0,0,1,217.163,507.613Zm20.88-23.475q-10.78,8.868-19.222,14.97a61.362,61.362,0,0,1-7.995,4.976c-1.956.935-3.189,1.318-3.785,1.148a.611.611,0,0,1-.51-.808c.255-1.191,2.636-3.785,7.187-7.825,9.483-8.506,17.691-16.373,24.58-23.518a16.827,16.827,0,0,1,.766,5.1A17.329,17.329,0,0,1,238.043,484.138Z" fill="#b1b3b4"/>
    <path id="Path_13" data-name="Path 13" d="M286.949,481.289a5.746,5.746,0,0,1,1.021.681q.32.063.765-.383a2.148,2.148,0,0,0,.468-1.234,2.112,2.112,0,0,0-1.914-2.509c-2.764-.51-8.547,3.147-17.478,10.93l-.255-.34a58.036,58.036,0,0,1,11.865-10.675,10.587,10.587,0,0,0-5.912,1.446,47.634,47.634,0,0,0-7.612,6.72q-2.041,2.107-3.748,4.074h0l-.005.005,0,0a3.174,3.174,0,0,0-.377.306A76.126,76.126,0,0,1,253.1,498.81c-3.02,1.871-5.486,2.807-7.315,2.807-1.233,0-1.829-.468-1.829-1.488,0-2.6,2.935-6.677,8.8-12.206a2.749,2.749,0,0,0,1.36.255,15.825,15.825,0,0,0,4.636-.978,17.793,17.793,0,0,0,4.593-2.211c2.892-2.084,4.38-3.955,4.38-5.614,0-1.4-.85-2.126-2.552-2.126-1.956,0-4.72,1.021-8.25,3.019a48.618,48.618,0,0,0-9.526,7.06c-4.04,3.87-6.209,7.527-6.549,10.929-.255,2.765,1.021,4.3,3.742,4.551,2.765.3,6.167-1.021,10.292-3.87q2.715-1.918,5.445-4.177l0,.007h0a41.709,41.709,0,0,0-3.275,5.19,2.99,2.99,0,0,0-.17,1.914c.17.936.467,1.361.935,1.361a113.644,113.644,0,0,1,10.675-11.95q11.481-10.908,16.287-10.674A6.105,6.105,0,0,1,286.949,481.289Zm-26.111-.255c3.019-2.169,4.763-3.062,5.273-2.679a.674.674,0,0,1,.17.51c0,1.063-1.276,2.637-3.87,4.678-3.359,2.637-6.166,3.955-8.463,3.955a1.558,1.558,0,0,1-.68-.085A77.546,77.546,0,0,1,260.838,481.034Z" fill="#b1b3b4"/>
  </g>
</svg>
