<svg xmlns="http://www.w3.org/2000/svg" width="349.45" height="70.207" viewBox="0 0 349.45 70.207">
  <g id="Group_4" data-name="Group 4" transform="translate(-173.7 -595.021)">
    <g id="Group_2" data-name="Group 2">
      <path id="Path_14" data-name="Path 14" d="M262.411,632.95c2.594-2.041,3.87-3.614,3.87-4.678a.677.677,0,0,0-.17-.51c-.51-.383-2.254.51-5.273,2.679a77.55,77.55,0,0,0-7.57,6.379,1.558,1.558,0,0,0,.68.085C256.245,636.905,259.052,635.587,262.411,632.95Z" fill="none"/>
      <path id="Path_15" data-name="Path 15" d="M264.151,639.4h0l0,0Z" fill="none"/>
      <path id="Path_16" data-name="Path 16" d="M304.907,644.384h0Z" fill="none"/>
      <path id="Path_17" data-name="Path 17" d="M206.4,656.085q-2.1,0-2.041-2.169.19-2.934,6.634-9.951c2.382-2.509,5.656-5.784,9.909-9.824,5.613-5.273,9.016-8.505,10.206-9.739,1.234-1.233,3.02-3.1,5.444-5.613-2.594-3.955-6.719-5.911-12.376-5.911a22.757,22.757,0,0,0-9.993,2.551,23.9,23.9,0,0,0-8.974,7.315,15.51,15.51,0,0,0-3.019,6.677c-.128.638-.34.935-.595.935-.383,0-.553-.3-.511-.935a14.9,14.9,0,0,1,2.935-7.358,22.955,22.955,0,0,1,9.015-7.654,24.9,24.9,0,0,1,11.228-2.807c5.911,0,10.334,2.084,13.31,6.166,2.892-3.147,5.7-6.379,8.463-9.781a40.261,40.261,0,0,0,5.061-7.1,61.342,61.342,0,0,0-13.864-1.191,64.87,64.87,0,0,0-19.86,3.445,68.941,68.941,0,0,0-21.476,11.61,65.7,65.7,0,0,0-13.524,14.5,38.366,38.366,0,0,0-6.038,13.311,24.839,24.839,0,0,0-.6,5.486c0,5.189,1.786,9.229,5.359,12.078,3.232,2.594,7.4,3.87,12.418,3.87q11.865,0,23.645-6.974a49.48,49.48,0,0,0,19.052-19.435q-9.186,7.4-16.628,12.46C213.548,654.086,209.125,656.085,206.4,656.085Z" fill="none"/>
      <path id="Path_18" data-name="Path 18" d="M213.718,646.006c-4.551,4.04-6.932,6.634-7.187,7.825a.611.611,0,0,0,.51.808c.6.17,1.829-.213,3.785-1.148a61.256,61.256,0,0,0,7.995-4.976q8.421-6.123,19.222-14.969a17.331,17.331,0,0,0,1.021-5.954,16.825,16.825,0,0,0-.766-5.1C231.409,629.633,223.2,637.5,213.718,646.006Z" fill="none"/>
      <path id="Path_19" data-name="Path 19" d="M331.755,645.349v0l0,0Z" fill="none"/>
      <path id="Path_20" data-name="Path 20" d="M357.374,627.932q-3.955,0-16.118,11.7c-5.146,4.933-7.74,8.378-7.74,10.334a.977.977,0,0,0,.511.936c.765.3,2.764-.681,6-3.02a81.055,81.055,0,0,0,10.036-8.76q8.421-8.612,8.421-10.334C358.48,628.23,358.1,627.932,357.374,627.932Z" fill="none"/>
      <path id="Path_21" data-name="Path 21" d="M304.045,628.868c0-.638-.34-.936-1.021-.936q-4.018,0-16.245,11.7c-5.146,4.933-7.74,8.42-7.74,10.419a.892.892,0,0,0,.511.851c.808.3,2.806-.681,6.038-3.02a84.223,84.223,0,0,0,10.037-8.76C301.2,633.333,304.045,629.931,304.045,628.868Z" fill="none"/>
      <path id="Path_22" data-name="Path 22" d="M360.028,642.345l-.329.283.32-.274Z" fill="none"/>
      <path id="Path_23" data-name="Path 23" d="M359.883,650.046a.893.893,0,0,0,.51.851c.766.3,2.765-.681,6-3.02a78.121,78.121,0,0,0,10.036-8.76c5.613-5.784,8.42-9.186,8.42-10.249,0-.638-.34-.936-1.02-.936q-4.02,0-16.2,11.7C362.477,644.56,359.883,648.047,359.883,650.046Z" fill="none"/>
      <path id="Path_24" data-name="Path 24" d="M412.914,607.519c-1.191-2.764-4.423-4.125-9.781-4.125-6.677,0-14.034,2.764-21.987,8.293a148,148,0,0,0-22.5,19.435,4.474,4.474,0,0,0,.978-2.509c0-1.191-.808-1.787-2.509-1.787-2.339,0-5.529,1.064-9.484,3.19a41.9,41.9,0,0,0-10.249,7.57,35.47,35.47,0,0,0-3.893,4.673l-.421.38h0c-2.427,1.981-4.443,3.635-6.02,4.94-3.189,2.3-5.571,3.444-7.059,3.444-.553,0-.851-.255-.851-.808,0-.808,1.021-2.254,3.02-4.38,2.466-2.594,4.72-4.763,6.719-6.549,5.231-4.678,7.825-8.038,7.825-10.164q0-2.3-2.679-2.3-2.808,0-9.7,4.211a105.34,105.34,0,0,0-9.908,7.059,69.266,69.266,0,0,1,11.7-10.929,10.365,10.365,0,0,0-5.784,1.361,47.169,47.169,0,0,0-7.74,6.8q-2.127,2.23-3.887,4.281l-.1.091c-3.344,2.933-5.894,5.11-7.713,6.557-4.423,3.487-7.144,4.933-8.165,4.466a.683.683,0,0,1-.383-.681c0-.85,1.191-2.679,3.53-5.486a176.643,176.643,0,0,1,17.053-17.053,8.023,8.023,0,0,0-3.274.34c-1.191.383-3.53,2.041-7.06,4.976,1.744-1.7,2.594-3.147,2.594-4.295,0-1.234-.893-1.872-2.679-1.872-2.424,0-5.571,1.106-9.483,3.275a46.509,46.509,0,0,0-10.122,7.655c-4.338,4.508-6.549,8.42-6.549,11.78,0,1.828.978,2.764,2.849,2.764q3.636,0,12.121-7.145a8.192,8.192,0,0,0-1.7,4.381c0,1.828,1.021,2.764,3.062,2.764,1.829,0,4.848-1.659,8.974-5.061,1.045-.844,2.13-1.745,3.243-2.684h0a41.677,41.677,0,0,0-3.158,4.981,2.847,2.847,0,0,0-.171,2c.128.851.426,1.276.936,1.276a118.8,118.8,0,0,1,10.674-11.95,67.422,67.422,0,0,1,11.653-8.59c4.89-3.02,7.782-4.295,8.76-3.913a.324.324,0,0,1,.255.341c0,.595-1.148,1.913-3.359,3.955-1.744,1.488-3.487,3.019-5.231,4.507a56.4,56.4,0,0,0-7.23,7.655,8.217,8.217,0,0,0-1.658,4.551c0,1.7.68,2.679,2,3.019,2.041.468,4.975-.68,8.93-3.445,1.2-.856,2.7-2,4.447-3.419v0h0a10.147,10.147,0,0,0-.917,4.015c0,1.828.936,2.764,2.849,2.764,2.424,0,6.422-2.382,12.078-7.145a8.442,8.442,0,0,0-1.659,4.381c0,1.828,1.021,2.764,3.02,2.764,1.786,0,4.763-1.659,8.973-5.061.668-.526,1.321-1.052,1.965-1.578h0a10.061,10.061,0,0,0-.86,3.874c0,1.828.935,2.764,2.849,2.764,2.424,0,6.422-2.382,12.12-7.145a8.2,8.2,0,0,0-1.7,4.381c0,1.828,1.021,2.764,3.02,2.764,1.871,0,4.848-1.659,9.015-5.061,2.382-1.956,5.018-4.167,7.783-6.634.467-.383.6-.723.425-1.063-.213-.425-.553-.383-1.021.085-3.444,3.062-6.124,5.316-7.952,6.8-4.423,3.487-7.145,4.933-8.165,4.466a.714.714,0,0,1-.426-.681c0-.85,1.191-2.679,3.53-5.486a176.76,176.76,0,0,1,17.053-17.053,8.109,8.109,0,0,0-3.274.34c-1.191.383-3.53,2.041-7.06,4.976,1.744-1.7,2.637-3.147,2.637-4.295,0-1.234-.936-1.872-2.722-1.872-2.381,0-5.571,1.106-9.441,3.275a46.5,46.5,0,0,0-10.121,7.655,33.953,33.953,0,0,0-4.243,5.2l-.2.17c-1.661,1.423-2.981,2.521-3.937,3.3q-6.57,5.1-8.165,4.466a.657.657,0,0,1-.425-.681c0-.85,1.19-2.679,3.529-5.486,3.317-3.912,8.974-9.7,17.054-17.393a212.04,212.04,0,0,1,18.414-15.65c6.081-4.508,11.567-6.805,16.458-6.805a11.5,11.5,0,0,1,8.718,3.53,9.01,9.01,0,0,0,1.361,1.021C413.084,609.008,413.3,608.412,412.914,607.519ZM285.588,647.877c-3.232,2.339-5.23,3.317-6.038,3.02a.892.892,0,0,1-.511-.851c0-2,2.594-5.486,7.74-10.419q12.248-11.673,16.245-11.7c.681,0,1.021.3,1.021.936,0,1.063-2.849,4.465-8.42,10.249A84.223,84.223,0,0,1,285.588,647.877Zm98.238-19.945c.68,0,1.02.3,1.02.936,0,1.063-2.807,4.465-8.42,10.249a78.121,78.121,0,0,1-10.036,8.76c-3.232,2.339-5.231,3.317-6,3.02a.893.893,0,0,1-.51-.851c0-2,2.594-5.486,7.74-10.419Q379.806,627.954,383.826,627.932Zm-23.8,14.413-.009.009-.32.274Zm-9.969-3.228a81.055,81.055,0,0,1-10.036,8.76c-3.232,2.339-5.231,3.317-6,3.02a.977.977,0,0,1-.511-.936c0-1.956,2.594-5.4,7.74-10.334q12.184-11.673,16.118-11.7c.723,0,1.106.3,1.106.851Q358.48,630.505,350.059,639.117Z" fill="#b1b3b4"/>
      <path id="Path_25" data-name="Path 25" d="M275.169,608.327c11.568-7.017,20.2-10.419,25.9-10.079a14.182,14.182,0,0,1,10.079,5.061.511.511,0,0,0,.51.17c.171-.085.213-.34.085-.765-1.4-4.721-4.933-7.23-10.674-7.655q-9.377-.638-25.133,9.356-10.078,6.443-29.3,22.156-4.466,3.636-6.635,5.486a19.385,19.385,0,0,0,.511-4.465,17.2,17.2,0,0,0-1.106-6.124,115.468,115.468,0,0,0,9.569-10.929,41.135,41.135,0,0,0,5.231-8.931,31.536,31.536,0,0,1,3.955,1.446,9.815,9.815,0,0,1,2.509,2,1.961,1.961,0,0,0,.68.425c.213-.213.128-.6-.17-1.148a6.2,6.2,0,0,0-3.105-2.509c-1.573-.681-2.806-1.191-3.614-1.446a6.194,6.194,0,0,0-.6-2.68,2.213,2.213,0,0,0-.765-.935,2.875,2.875,0,0,0-.511.85,21.58,21.58,0,0,1-.85,2,71.519,71.519,0,0,0-15.607-1.616,68.88,68.88,0,0,0-21.009,3.4,66.244,66.244,0,0,0-21.263,10.887,55.13,55.13,0,0,0-13.864,15.735,47.814,47.814,0,0,0-5.7,14.289,26.232,26.232,0,0,0-.6,5.359c0,5.528,1.914,9.866,5.7,13.055,3.657,3.02,8.377,4.508,14.119,4.508,9.313,0,18.371-2.934,27.132-8.888,8.463-5.7,14.544-12.673,18.159-20.838q5.868-4.913,10.589-8.676A262.738,262.738,0,0,1,275.169,608.327Zm-58.006,48.694q-11.8,6.953-23.645,6.974c-5.019,0-9.186-1.276-12.418-3.87-3.573-2.849-5.359-6.889-5.359-12.078a24.839,24.839,0,0,1,.6-5.486,38.366,38.366,0,0,1,6.038-13.311,65.7,65.7,0,0,1,13.524-14.5,68.941,68.941,0,0,1,21.476-11.61,64.87,64.87,0,0,1,19.86-3.445,61.342,61.342,0,0,1,13.864,1.191,40.261,40.261,0,0,1-5.061,7.1c-2.764,3.4-5.571,6.634-8.463,9.781-2.976-4.082-7.4-6.166-13.31-6.166a24.9,24.9,0,0,0-11.228,2.807,22.955,22.955,0,0,0-9.015,7.654,14.9,14.9,0,0,0-2.935,7.358c-.042.638.128.935.511.935.255,0,.467-.3.595-.935a15.51,15.51,0,0,1,3.019-6.677,23.9,23.9,0,0,1,8.974-7.315,22.757,22.757,0,0,1,9.993-2.551c5.657,0,9.782,1.956,12.376,5.911-2.424,2.509-4.21,4.38-5.444,5.613-1.19,1.234-4.593,4.466-10.206,9.739-4.253,4.04-7.527,7.315-9.909,9.824q-6.442,7.017-6.634,9.951-.064,2.169,2.041,2.169c2.722,0,7.145-2,13.184-6.039q7.462-5.039,16.628-12.46A49.48,49.48,0,0,1,217.163,657.021Zm20.88-23.475q-10.78,8.866-19.222,14.969a61.256,61.256,0,0,1-7.995,4.976c-1.956.935-3.189,1.318-3.785,1.148a.611.611,0,0,1-.51-.808c.255-1.191,2.636-3.785,7.187-7.825,9.483-8.505,17.691-16.373,24.58-23.517a16.825,16.825,0,0,1,.766,5.1A17.331,17.331,0,0,1,238.043,633.546Z" fill="#b1b3b4"/>
      <path id="Path_26" data-name="Path 26" d="M286.949,630.7a5.8,5.8,0,0,1,1.021.681q.32.063.765-.383a2.148,2.148,0,0,0,.468-1.233,2.111,2.111,0,0,0-1.914-2.509c-2.764-.511-8.547,3.147-17.478,10.929l-.255-.34a58,58,0,0,1,11.865-10.674,10.578,10.578,0,0,0-5.912,1.446,47.568,47.568,0,0,0-7.612,6.719q-2.041,2.108-3.748,4.074h0l-.005,0,0,0a3.385,3.385,0,0,0-.377.306,76.124,76.124,0,0,1-10.674,8.505c-3.02,1.872-5.486,2.807-7.315,2.807-1.233,0-1.829-.468-1.829-1.488,0-2.594,2.935-6.677,8.8-12.205a2.749,2.749,0,0,0,1.36.255,15.825,15.825,0,0,0,4.636-.978,17.823,17.823,0,0,0,4.593-2.212c2.892-2.084,4.38-3.955,4.38-5.613,0-1.4-.85-2.127-2.552-2.127-1.956,0-4.72,1.021-8.25,3.02a48.575,48.575,0,0,0-9.526,7.059c-4.04,3.87-6.209,7.527-6.549,10.93-.255,2.764,1.021,4.3,3.742,4.55,2.765.3,6.167-1.021,10.292-3.87q2.715-1.918,5.445-4.177l0,.007h0a41.713,41.713,0,0,0-3.275,5.191,2.986,2.986,0,0,0-.17,1.913c.17.936.467,1.361.935,1.361a113.74,113.74,0,0,1,10.675-11.95q11.481-10.908,16.287-10.674A6.127,6.127,0,0,1,286.949,630.7Zm-26.111-.255c3.019-2.169,4.763-3.062,5.273-2.679a.677.677,0,0,1,.17.51c0,1.064-1.276,2.637-3.87,4.678-3.359,2.637-6.166,3.955-8.463,3.955a1.558,1.558,0,0,1-.68-.085A77.55,77.55,0,0,1,260.838,630.441Z" fill="#b1b3b4"/>
    </g>
    <rect id="Rectangle_6" data-name="Rectangle 6" width="3.25" height="31.749" transform="translate(405.813 620.891)" fill="#b1b3b4"/>
    <g id="Group_3" data-name="Group 3">
      <path id="Path_27" data-name="Path 27" d="M435.342,632.674a4.561,4.561,0,0,1,2,1.672,5.013,5.013,0,0,1,0,5.12,4.492,4.492,0,0,1-2,1.673,7.516,7.516,0,0,1-3.069.579H429.6v3.667h-3.078v-13.3h5.756A7.383,7.383,0,0,1,435.342,632.674Zm-1.13,5.937a2.087,2.087,0,0,0,.722-1.7,2.111,2.111,0,0,0-.722-1.72,3.237,3.237,0,0,0-2.109-.6H429.6v4.617H432.1A3.231,3.231,0,0,0,434.212,638.611Z" fill="#b1b3b4"/>
      <path id="Path_28" data-name="Path 28" d="M457.828,642.535h-6.175l-1.177,2.85h-3.155l5.928-13.3h3.04l5.947,13.3h-3.23Zm-.969-2.337L454.75,635.1l-2.108,5.093Z" fill="#b1b3b4"/>
      <path id="Path_29" data-name="Path 29" d="M475.214,634.593h-4.256v-2.508h11.59v2.508h-4.256v10.792h-3.078Z" fill="#b1b3b4"/>
      <path id="Path_30" data-name="Path 30" d="M493.7,632.085h3.078v13.3H493.7Z" fill="#b1b3b4"/>
      <path id="Path_31" data-name="Path 31" d="M512.14,644.72a6.615,6.615,0,0,1-2.6-2.461,7.077,7.077,0,0,1,0-7.049,6.627,6.627,0,0,1,2.6-2.46,8.224,8.224,0,0,1,7.458,0,6.785,6.785,0,0,1,0,11.97,8.24,8.24,0,0,1-7.458,0ZM518,642.449a3.881,3.881,0,0,0,1.491-1.511,4.758,4.758,0,0,0,0-4.407,3.879,3.879,0,0,0-1.491-1.51,4.451,4.451,0,0,0-4.257,0,3.879,3.879,0,0,0-1.491,1.51,4.758,4.758,0,0,0,0,4.407,3.881,3.881,0,0,0,1.491,1.511,4.45,4.45,0,0,0,4.257,0Z" fill="#b1b3b4"/>
    </g>
  </g>
</svg>
