<svg xmlns="http://www.w3.org/2000/svg" width="33.993" height="33.992" viewBox="0 0 33.993 33.992">
  <g id="Group_12" data-name="Group 12" transform="translate(10.183 -824.861)">
    <circle id="Ellipse_4" data-name="Ellipse 4" cx="16.996" cy="16.996" r="16.996" transform="translate(-10.183 824.861)" fill="#5e5e5e"/>
    <path id="Path_35" data-name="Path 35" d="M15.69,837.728a2.418,2.418,0,0,0-2.208-2.128c-.694-.1-4.019-.232-6.663-.233S.84,835.5.145,835.6a2.418,2.418,0,0,0-2.208,2.128,35.344,35.344,0,0,0-.279,4.022v.215a35.328,35.328,0,0,0,.279,4.022,2.417,2.417,0,0,0,2.208,2.128c.695.1,4.028.233,6.674.233s5.969-.131,6.663-.233a2.417,2.417,0,0,0,2.208-2.128,35.328,35.328,0,0,0,.279-4.022v-.215A35.343,35.343,0,0,0,15.69,837.728Zm-10.778,6.7v-5.2l4.864,2.539Z" fill="#fff"/>
  </g>
</svg>
