<svg xmlns="http://www.w3.org/2000/svg" width="33.993" height="33.992" viewBox="0 0 33.993 33.992">
  <g id="Group_11" data-name="Group 11" transform="translate(51.59 -824.861)">
    <circle id="Ellipse_2" data-name="Ellipse 2" cx="16.996" cy="16.996" r="16.996" transform="translate(-51.59 824.861)" fill="#5e5e5e"/>
    <g id="Group_10" data-name="Group 10">
      <g id="Group_7" data-name="Group 7">
        <path id="Path_33" data-name="Path 33" d="M-31.876,850.079h-5.706a4.967,4.967,0,0,1-4.961-4.961v-6.14a4.967,4.967,0,0,1,4.961-4.962h5.706a4.967,4.967,0,0,1,4.961,4.962v6.14A4.966,4.966,0,0,1-31.876,850.079Zm-5.706-14.862a3.766,3.766,0,0,0-3.761,3.761v6.14a3.766,3.766,0,0,0,3.761,3.761h5.706a3.765,3.765,0,0,0,3.761-3.761v-6.14a3.765,3.765,0,0,0-3.761-3.761Z" fill="#fff"/>
      </g>
      <g id="Group_8" data-name="Group 8">
        <path id="Path_34" data-name="Path 34" d="M-34.7,846.271a4.254,4.254,0,0,1-4.25-4.25,4.255,4.255,0,0,1,4.25-4.25,4.255,4.255,0,0,1,4.25,4.25A4.255,4.255,0,0,1-34.7,846.271Zm0-7.3a3.053,3.053,0,0,0-3.05,3.049,3.053,3.053,0,0,0,3.05,3.05,3.053,3.053,0,0,0,3.05-3.05A3.053,3.053,0,0,0-34.7,838.972Z" fill="#fff"/>
      </g>
      <g id="Group_9" data-name="Group 9">
        <circle id="Ellipse_3" data-name="Ellipse 3" cx="1.014" cy="1.014" r="1.014" transform="translate(-31.346 836.618)" fill="#fff"/>
      </g>
    </g>
  </g>
</svg>
