<svg xmlns="http://www.w3.org/2000/svg" width="116.808" height="33.992" viewBox="0 0 116.808 33.992">
  <g id="Group_16" data-name="Group 16" transform="translate(92.998 -824.861)">
    <g id="Group_6" data-name="Group 6">
      <circle id="Ellipse_1" data-name="Ellipse 1" cx="16.996" cy="16.996" r="16.996" transform="translate(-92.998 824.861)" fill="#5e5e5e"/>
      <path id="Path_32" data-name="Path 32" d="M-74.7,850.394h-3.354v-7.926h-2.215V839.4H-78v-2.965a3.161,3.161,0,0,1,3.345-3.115h2.928v2.94h-1.99c-.9,0-.924.109-.924.876l0,2.264h2.919l-.324,3.066H-74.7v7.926Z" fill="#fff" fill-rule="evenodd"/>
    </g>
    <g id="Group_11" data-name="Group 11">
      <circle id="Ellipse_2" data-name="Ellipse 2" cx="16.996" cy="16.996" r="16.996" transform="translate(-51.59 824.861)" fill="#5e5e5e"/>
      <g id="Group_10" data-name="Group 10">
        <g id="Group_7" data-name="Group 7">
          <path id="Path_33" data-name="Path 33" d="M-31.876,850.079h-5.706a4.967,4.967,0,0,1-4.961-4.961v-6.14a4.967,4.967,0,0,1,4.961-4.962h5.706a4.967,4.967,0,0,1,4.961,4.962v6.14A4.966,4.966,0,0,1-31.876,850.079Zm-5.706-14.862a3.766,3.766,0,0,0-3.761,3.761v6.14a3.766,3.766,0,0,0,3.761,3.761h5.706a3.765,3.765,0,0,0,3.761-3.761v-6.14a3.765,3.765,0,0,0-3.761-3.761Z" fill="#fff"/>
        </g>
        <g id="Group_8" data-name="Group 8">
          <path id="Path_34" data-name="Path 34" d="M-34.7,846.271a4.254,4.254,0,0,1-4.25-4.25,4.255,4.255,0,0,1,4.25-4.25,4.255,4.255,0,0,1,4.25,4.25A4.255,4.255,0,0,1-34.7,846.271Zm0-7.3a3.053,3.053,0,0,0-3.05,3.049,3.053,3.053,0,0,0,3.05,3.05,3.053,3.053,0,0,0,3.05-3.05A3.053,3.053,0,0,0-34.7,838.972Z" fill="#fff"/>
        </g>
        <g id="Group_9" data-name="Group 9">
          <circle id="Ellipse_3" data-name="Ellipse 3" cx="1.014" cy="1.014" r="1.014" transform="translate(-31.346 836.618)" fill="#fff"/>
        </g>
      </g>
    </g>
    <g id="Group_12" data-name="Group 12">
      <circle id="Ellipse_4" data-name="Ellipse 4" cx="16.996" cy="16.996" r="16.996" transform="translate(-10.183 824.861)" fill="#5e5e5e"/>
      <path id="Path_35" data-name="Path 35" d="M15.69,837.728a2.418,2.418,0,0,0-2.208-2.128c-.694-.1-4.019-.232-6.663-.233S.84,835.5.145,835.6a2.418,2.418,0,0,0-2.208,2.128,35.344,35.344,0,0,0-.279,4.022v.215a35.328,35.328,0,0,0,.279,4.022,2.417,2.417,0,0,0,2.208,2.128c.695.1,4.028.233,6.674.233s5.969-.131,6.663-.233a2.417,2.417,0,0,0,2.208-2.128,35.328,35.328,0,0,0,.279-4.022v-.215A35.343,35.343,0,0,0,15.69,837.728Zm-10.778,6.7v-5.2l4.864,2.539Z" fill="#fff"/>
    </g>
  </g>
</svg>
