<svg xmlns="http://www.w3.org/2000/svg" width="37.953" height="37.953" viewBox="0 0 37.953 37.953">
  <g id="Group_33" data-name="Group 33" transform="translate(-242.27 202.319)">
    <path id="Path_38" data-name="Path 38" d="M259.069-170.139a15.062,15.062,0,0,0,15.045,15.044,15.061,15.061,0,0,0,15.044-15.044,15.064,15.064,0,0,0-13.328-14.944H272.4A15.065,15.065,0,0,0,259.069-170.139Zm15.966,1.875a2.09,2.09,0,0,1-2.8-.954,2.089,2.089,0,0,1,.954-2.8,2.089,2.089,0,0,1,2.8.954A2.09,2.09,0,0,1,275.035-168.263Zm9.462-9.9-7.051,5.595a4.178,4.178,0,0,0-3.4-1.756,4.188,4.188,0,0,0-3.239,1.536l-7.073-5.554a13.165,13.165,0,0,1,10.312-4.98A13.172,13.172,0,0,1,284.5-178.166Z" transform="translate(-12.867 -13.202)" fill="#fff"/>
    <path id="Path_39" data-name="Path 39" d="M261.247-202.319a18.977,18.977,0,0,0-18.977,18.977,18.976,18.976,0,0,0,18.977,18.976,18.976,18.976,0,0,0,18.977-18.976A18.977,18.977,0,0,0,261.247-202.319Zm0,34.86a15.9,15.9,0,0,1-15.884-15.883,15.906,15.906,0,0,1,14.232-15.8L261.247-202l1.652,2.861a15.906,15.906,0,0,1,14.232,15.8A15.9,15.9,0,0,1,261.247-167.459Z" transform="translate(0)" fill="#fff"/>
  </g>
</svg>
